<svg preserveAspectRatio="none" width="100%" height="100%" overflow="visible" style="display: block;" viewBox="0 0 20.001 20" fill="none" xmlns="http://www.w3.org/2000/svg">
<g id="Icon">
<path d="M10.0005 0C10.5528 0 11.0005 0.447715 11.0005 1V2C11.0005 2.55228 10.5528 3 10.0005 3C9.4482 3 9.00049 2.55228 9.00049 2V1C9.00049 0.447715 9.4482 0 10.0005 0Z" fill="var(--fill-0, white)"/>
<path fill-rule="evenodd" clip-rule="evenodd" d="M14.0898 12.8778C13.5201 13.6859 13.0005 14.5821 13.0005 15.5709C13.0005 16.3602 12.3607 17 11.5714 17H8.42956C7.64031 17 7.00049 16.3602 7.00049 15.5709C7.00049 14.5821 6.48092 13.6859 5.91117 12.8778C5.33745 12.064 5.00049 11.0714 5.00049 10C5.00049 7.23858 7.23906 5 10.0005 5C12.7619 5 15.0005 7.23858 15.0005 10C15.0005 11.0714 14.6635 12.064 14.0898 12.8778ZM12.4552 11.7254C12.7989 11.2378 13.0005 10.6454 13.0005 10C13.0005 8.34315 11.6573 7 10.0005 7C8.34363 7 7.00049 8.34315 7.00049 10C7.00049 10.6454 7.20203 11.2378 7.54576 11.7254C8.06702 12.4647 8.80179 13.5998 8.96675 15H11.0342C11.1992 13.5998 11.934 12.4647 12.4552 11.7254Z" fill="var(--fill-0, white)"/>
<path d="M16.3643 5.05044L17.0714 4.34334C17.4619 3.95281 17.4619 3.31965 17.0714 2.92912C16.6808 2.5386 16.0477 2.5386 15.6572 2.92912L14.95 3.63623C14.5595 4.02675 14.5595 4.65992 14.95 5.05044C15.3406 5.44097 15.9737 5.44097 16.3643 5.05044Z" fill="var(--fill-0, white)"/>
<path d="M20.001 10C20.001 10.5523 19.5533 11 19.001 11H18.001C17.4487 11 17.001 10.5523 17.001 10C17.001 9.44771 17.4487 9 18.001 9H19.001C19.5533 9 20.001 9.44771 20.001 10Z" fill="var(--fill-0, white)"/>
<path d="M2 11C2.55228 11 3 10.5523 3 10C3 9.44771 2.55228 9 2 9H1C0.447715 9 0 9.44771 0 10C0 10.5523 0.447715 11 1 11H2Z" fill="var(--fill-0, white)"/>
<path d="M3.63567 5.04988L2.92856 4.34277C2.53804 3.95225 2.53804 3.31908 2.92856 2.92856C3.31908 2.53804 3.95225 2.53804 4.34277 2.92856L5.04988 3.63567C5.4404 4.02619 5.4404 4.65936 5.04988 5.04988C4.65936 5.4404 4.02619 5.4404 3.63567 5.04988Z" fill="var(--fill-0, white)"/>
<path d="M8.75049 18C8.1982 18 7.75049 18.4477 7.75049 19C7.75049 19.5523 8.1982 20 8.75049 20H11.2505C11.8028 20 12.2505 19.5523 12.2505 19C12.2505 18.4477 11.8028 18 11.2505 18H8.75049Z" fill="var(--fill-0, white)"/>
</g>
</svg>
