<svg width="96" height="28" overflow="visible" style="display: block;" viewBox="0 0 95.288 27.9428" fill="none" xmlns="http://www.w3.org/2000/svg">
<path d="M95.288 10.3395C95.288 13.5349 91.4894 24.4755 90.8662 26.1175C90.4564 27.1963 89.6715 27.349 88.6546 27.349C86.8142 27.349 85.4262 26.9107 84.7495 26.3684C84.6093 26.2567 84.4359 26.0172 84.5535 25.6664C85.2453 23.6029 87.8714 16.1729 87.8714 14.5676C87.8714 13.689 87.6115 13.0283 86.7348 13.0283C81.4199 13.0283 71.6549 24.3773 69.8417 26.4061C69.2484 27.0691 68.3791 27.2091 67.3635 27.2091C66.1066 27.2091 64.7681 26.5417 64.6407 26.4757C64.2433 26.2702 64.2245 26.0431 64.3422 25.5638L64.676 24.2054C65.2868 21.7204 68.4507 12.5267 70.6441 7.54436C70.7372 7.33378 70.8283 7.15885 71.3046 7.08451C71.5258 7.04986 72.2516 6.88065 73.2624 6.88065C74.0036 6.88065 75.444 6.93347 76.1661 7.32099C76.1661 7.32099 76.1721 7.31023 76.1721 8.52294C76.1721 9.04671 76.2293 10.8276 77.9044 10.8276C80.7311 10.8276 85.8625 5.97272 90.3996 5.97272C94.3884 5.97272 95.288 8.43581 95.288 10.3395ZM38.8478 14.3557C38.8478 15.0191 38.0757 16.845 37.9664 17.1148C37.2722 18.8281 35.452 19.106 34.1705 19.106C32.2481 19.106 31.5875 18.415 31.5875 17.3247C31.5875 16.4811 32.2968 15.0245 32.3903 14.8098C33.2559 12.8251 34.8052 12.6095 36.3344 12.6095C37.6309 12.6095 38.8478 13.1491 38.8478 14.3557ZM22.4078 10.1642C22.4078 8.90071 22.3483 7.09023 21.361 7.09023C18.1477 7.09023 12.503 12.008 11.9369 12.5742C11.518 12.9936 11.8313 12.9583 12.3907 12.9583H19.6157C22.1755 12.9583 22.4078 12.5274 22.4078 10.1642ZM30.1215 10.8276C30.1215 17.0186 26.3159 18.3027 22.0938 18.3027H19.1272C16.1624 18.3027 10.1916 18.1277 10.1916 18.1277C9.71254 18.1183 9.3542 18.0231 9.3542 18.3027C9.3542 20.3214 11.6364 23.3674 15.1132 23.3674C17.8512 23.3674 19.6157 21.6559 19.9996 21.2505C19.9996 21.2505 23.1456 20.8872 25.1653 20.8872C27.1264 20.8872 30.017 21.2014 30.017 22.3192C30.017 24.4997 22.9376 27.9428 16.998 27.9428C8.05529 27.9428 0 23.0812 0 17.2198C0 7.39803 18.9427 0 24.4674 0C29.4428 0 30.1215 7.92987 30.1215 10.8276ZM53.8561 10.6184C53.1825 10.6184 52.1807 10.7233 51.7266 11.3517C50.0263 13.7075 48.8995 19.5981 48.8995 21.2367C48.8995 22.3556 49.6764 22.2842 50.7144 22.2842C51.3185 22.2842 52.2933 22.2994 52.8436 21.7258C54.3375 20.1686 55.6263 13.1124 55.6263 11.8385C55.6263 10.9325 55.5611 10.6184 53.8561 10.6184ZM65.0945 10.3038C65.0945 12.993 62.4412 18.8974 61.5887 20.5377C58.0245 27.3954 53.2628 27.349 47.887 27.349C45.2603 27.349 39.4058 27.3793 39.4058 22.4588C39.4058 20.2581 41.3222 16.2244 42.8961 12.3999C43.5654 10.7734 46.4167 5.30901 56.1245 5.30901C60.1288 5.30901 65.0945 5.93807 65.0945 10.3038Z" fill="#ea1b0a"/>
</svg>
