<svg preserveAspectRatio="none" width="100%" height="100%" overflow="visible" style="display: block;" viewBox="0 0 22 22" fill="none" xmlns="http://www.w3.org/2000/svg">
<g id="tabler-icon-microphone">
<path id="Vector" d="M4.58333 9.16667C4.58333 10.8685 5.25937 12.5006 6.46273 13.7039C7.66609 14.9073 9.29819 15.5833 11 15.5833M11 15.5833C12.7018 15.5833 14.3339 14.9073 15.5373 13.7039C16.7406 12.5006 17.4167 10.8685 17.4167 9.16667M11 15.5833V19.25M7.33333 19.25H14.6667M8.25 4.58333C8.25 3.85399 8.53973 3.15451 9.05546 2.63879C9.57118 2.12306 10.2707 1.83333 11 1.83333C11.7293 1.83333 12.4288 2.12306 12.9445 2.63879C13.4603 3.15451 13.75 3.85399 13.75 4.58333V9.16667C13.75 9.89601 13.4603 10.5955 12.9445 11.1112C12.4288 11.6269 11.7293 11.9167 11 11.9167C10.2707 11.9167 9.57118 11.6269 9.05546 11.1112C8.53973 10.5955 8.25 9.89601 8.25 9.16667V4.58333Z" stroke="var(--stroke-0, black)" stroke-width="1.375" stroke-linecap="round" stroke-linejoin="round"/>
</g>
</svg>
