<svg preserveAspectRatio="none" width="100%" height="100%" overflow="visible" style="display: block;" viewBox="0 0 20.9999 19.7595" fill="none" xmlns="http://www.w3.org/2000/svg">
<g id="Icon">
<path d="M12.6124 1.92678L12.714 1.94436L13.0177 2.01662C13.7212 2.19948 14.3872 2.47597 15.0011 2.83107C17.3894 4.21287 19.0001 6.79761 19.0001 9.75978C19 11.6082 18.3703 13.3086 17.3175 14.6631L20.7071 18.0528L20.7755 18.1279C21.0959 18.5207 21.0733 19.1007 20.7071 19.4668C20.341 19.8327 19.7609 19.8555 19.3683 19.5352L19.2931 19.4668L15.9034 16.0772C14.5488 17.13 12.8485 17.7598 11.0001 17.7598C8.64874 17.7597 6.53267 16.7434 5.07041 15.1299C4.69993 14.7208 4.73111 14.0887 5.13974 13.7178C5.549 13.3469 6.18198 13.3779 6.55283 13.7871C7.65195 14.9999 9.23678 15.7597 11.0001 15.7598C14.3136 15.7597 16.9998 13.0732 17.0001 9.75978C17.0001 7.54031 15.795 5.60051 13.9991 4.56154C13.5392 4.29555 13.0409 4.08894 12.5147 3.95217L12.2872 3.89748L12.1886 3.87111C11.7069 3.71373 11.4136 3.21368 11.5235 2.70803C11.634 2.2023 12.109 1.86944 12.6124 1.92678Z" fill="var(--fill-0, white)"/>
<path fill-rule="evenodd" clip-rule="evenodd" d="M6.00693 1.94577e-05C6.42637 0.00288564 6.79972 0.267344 6.9415 0.662129V0.664082C6.9415 0.664082 6.94269 0.666868 6.94345 0.668965C6.94533 0.674181 6.94844 0.682874 6.95224 0.693379C6.95989 0.714483 6.97167 0.745856 6.98642 0.786152C7.01598 0.866916 7.05842 0.983668 7.11142 1.12502C7.21769 1.40839 7.36433 1.78932 7.52353 2.18264C7.68373 2.57841 7.85218 2.97508 8.00498 3.29396C8.08161 3.4539 8.14938 3.58279 8.2042 3.67678C8.22361 3.71005 8.23972 3.73317 8.25009 3.74904C8.26593 3.75942 8.28928 3.77603 8.32334 3.79592C8.41728 3.85072 8.54624 3.91851 8.70615 3.99514C9.02499 4.14791 9.42173 4.31639 9.81748 4.47658C10.2107 4.63575 10.5917 4.78242 10.8751 4.88869C11.0164 4.94166 11.1332 4.98413 11.214 5.01369C11.2542 5.0284 11.2856 5.04022 11.3067 5.04787C11.3169 5.05157 11.3249 5.05476 11.3302 5.05666C11.3325 5.05748 11.336 5.05861 11.336 5.05861H11.338L11.4815 5.12404C11.8011 5.29954 12.0043 5.63883 12.0001 6.01174C11.9951 6.43772 11.7206 6.81342 11.3165 6.94826L11.3145 6.94924C11.3145 6.94924 11.3117 6.95051 11.3097 6.95119C11.3046 6.9529 11.2965 6.95555 11.2862 6.959C11.2654 6.96602 11.2342 6.97663 11.1944 6.99025C11.1144 7.01767 10.9979 7.05773 10.8575 7.10744C10.5759 7.2072 10.1974 7.34497 9.80771 7.49807C9.41472 7.65247 9.02487 7.81657 8.71396 7.96877C8.55803 8.04512 8.43596 8.11212 8.3497 8.16603C8.3192 8.18511 8.29831 8.19964 8.28525 8.209C8.27128 8.23035 8.2464 8.26869 8.21201 8.3301C8.15339 8.43479 8.08442 8.57196 8.00693 8.73537C7.85223 9.06163 7.68201 9.45897 7.52158 9.85061C7.36198 10.2402 7.21586 10.6148 7.10947 10.8926C7.05637 11.0312 7.01311 11.1456 6.98349 11.2246C6.96876 11.2639 6.95696 11.2948 6.94931 11.3154C6.94555 11.3256 6.94338 11.3338 6.9415 11.3389C6.94064 11.3412 6.93857 11.3438 6.93857 11.3438V11.3457C6.79224 11.7428 6.41157 12.005 5.98837 12C5.56529 11.9949 5.19077 11.7236 5.0538 11.3233C5.0538 11.3233 5.05259 11.3196 5.05185 11.3174C5.05014 11.3124 5.04753 11.3041 5.04404 11.294C5.037 11.2736 5.02647 11.2431 5.01279 11.2041C4.98533 11.1258 4.94442 11.0127 4.89462 10.875C4.79477 10.599 4.65751 10.227 4.504 9.84084C4.34934 9.45184 4.18368 9.06062 4.02939 8.74221C3.85357 8.3794 3.75498 8.24514 3.75498 8.24514C3.74864 8.24087 3.61269 8.14264 3.25791 7.97072C2.9395 7.81645 2.54821 7.65075 2.15927 7.49611C1.77319 7.34262 1.4011 7.20532 1.12509 7.10549C0.98746 7.05571 0.874261 7.01477 0.795992 6.98732C0.757016 6.97366 0.726449 6.9631 0.706148 6.95607C0.696096 6.9526 0.68765 6.94996 0.682711 6.94826C0.680602 6.94752 0.677828 6.94631 0.677828 6.94631H0.675875C0.276606 6.80939 0.00600424 6.4358 9.33294e-05 6.01369C-0.00566002 5.59157 0.255064 5.21137 0.650484 5.0635L0.651461 5.06252C0.651461 5.06252 0.654933 5.06145 0.65732 5.06057C0.662741 5.05853 0.671906 5.05487 0.682711 5.0508C0.704484 5.04261 0.737244 5.03029 0.778414 5.01467C0.861337 4.98321 0.980753 4.93767 1.12509 4.88186C1.41497 4.76976 1.80462 4.61647 2.20419 4.45217C2.60602 4.28694 3.00782 4.11435 3.32724 3.96291C3.48759 3.88688 3.61542 3.82151 3.70712 3.76955C3.72215 3.76103 3.73433 3.75165 3.74521 3.74514C3.75172 3.73422 3.76107 3.72212 3.76962 3.70705C3.82159 3.61535 3.88692 3.48759 3.96298 3.32717C4.11445 3.00773 4.28698 2.60602 4.45224 2.20412C4.61656 1.8045 4.76981 1.41494 4.88193 1.12502C4.93777 0.980609 4.98327 0.861304 5.01474 0.77834C5.03039 0.737096 5.04266 0.704451 5.05087 0.682637C5.05497 0.671765 5.05859 0.662712 5.06064 0.657246C5.06156 0.654797 5.06259 0.651387 5.06259 0.651387L5.06357 0.65041L5.129 0.508808C5.30524 0.196054 5.63996 -0.00226088 6.00693 1.94577e-05ZM5.7706 4.18459C5.68426 4.36667 5.59537 4.5425 5.50986 4.69338C5.4392 4.81804 5.32245 5.01555 5.16904 5.16896C5.01561 5.32235 4.81808 5.43915 4.69345 5.50979C4.54259 5.59527 4.36669 5.68421 4.18466 5.77053C4.03786 5.84013 3.87792 5.91032 3.71396 5.98244C3.85667 6.04569 3.99786 6.10691 4.12998 6.17092C4.46359 6.33257 4.89831 6.56043 5.16904 6.83107C5.43971 7.10175 5.66751 7.53648 5.8292 7.87014C5.8928 8.00141 5.95383 8.14146 6.0167 8.28322C6.07864 8.1436 6.13926 8.00664 6.20029 7.87795C6.3574 7.54667 6.5632 7.13999 6.77939 6.88771L6.90537 6.75686C7.03643 6.63506 7.1788 6.53934 7.29013 6.46975C7.45603 6.36608 7.64423 6.26583 7.83408 6.17287C7.96513 6.10871 8.10461 6.04468 8.24716 5.98146C8.10733 5.91942 7.96987 5.86017 7.84189 5.79885C7.65584 5.70969 7.47386 5.6168 7.31552 5.52443C7.17557 5.44278 6.98442 5.32224 6.83115 5.16896C6.67787 5.01564 6.55731 4.82451 6.47568 4.68459C6.3833 4.52622 6.29043 4.3443 6.20127 4.15822C6.1312 4.01199 6.06211 3.85437 5.9913 3.69338C5.91615 3.86465 5.84311 4.03166 5.7706 4.18459Z" fill="var(--fill-0, white)"/>
</g>
</svg>
