<svg preserveAspectRatio="none" width="100%" height="100%" overflow="visible" style="display: block;" viewBox="0 0 19.1329 19.1336" fill="none" xmlns="http://www.w3.org/2000/svg">
<path id="Icon" d="M13.2435 17.8944L18.9058 4.1431C19.3681 3.01993 19.1119 1.73901 18.2529 0.880013C17.3939 0.0210199 16.113 -0.235236 14.9899 0.227141L1.23988 5.88951C0.481652 6.20028 -0.00519085 6.9315 4.1765e-05 7.75288C0.00350659 8.29078 0.218961 8.78794 0.582202 9.15118C0.772414 9.34139 1.00307 9.49469 1.26442 9.59864L7.1899 11.9431L9.5346 17.8688C9.83675 18.6295 10.5603 19.1266 11.3821 19.1336C12.2011 19.1377 12.9325 18.6509 13.2435 17.8944ZM9.13211 11.4151L12.2031 8.34402C12.5936 7.95356 12.5936 7.32027 12.2031 6.92981C11.8127 6.53934 11.1794 6.53934 10.7889 6.92981L7.71776 10.001L1.99981 7.73909L15.7508 2.07637C16.1251 1.92243 16.5522 2.00771 16.8387 2.29423C17.1252 2.58075 17.2106 3.00791 17.0563 3.38183L11.3946 17.1324L9.13211 11.4151Z" fill="var(--fill-0, white)"/>
</svg>
