<svg preserveAspectRatio="none" width="100%" height="100%" overflow="visible" style="display: block;" viewBox="0 0 16.0019 20" fill="none" xmlns="http://www.w3.org/2000/svg">
<g id="Icon">
<path fill-rule="evenodd" clip-rule="evenodd" d="M13.001 5C13.001 7.76142 10.7624 10 8.00095 10C5.23953 10 3.00096 7.76142 3.00096 5C3.00096 2.23858 5.23953 0 8.00095 0C10.7624 0 13.001 2.23858 13.001 5ZM11.001 5C11.001 6.65685 9.65781 8 8.00095 8C6.3441 8 5.00096 6.65685 5.00096 5C5.00096 3.34315 6.3441 2 8.00095 2C9.65781 2 11.001 3.34315 11.001 5Z" fill="var(--fill-0, white)"/>
<path d="M6.96544 12C6.06368 12 5.33627 12 4.74426 12.0404C4.13552 12.0819 3.59724 12.1695 3.08754 12.3806C1.8624 12.8881 0.889028 13.8614 0.381558 15.0866C0.170434 15.5963 0.0828696 16.1346 0.0413354 16.7433C-0.00986589 17.4937 0.000955192 18.2483 0.000955192 19C0.000955192 19.5523 0.448671 20 1.00096 20C1.55324 20 2.00096 19.5523 2.00096 19C2.00096 18.0544 2.0015 17.3953 2.0367 16.8794C2.07128 16.3725 2.13596 16.0773 2.22932 15.8519C2.5338 15.1169 3.11782 14.5328 3.85291 14.2284C4.07829 14.135 4.37349 14.0703 4.8804 14.0357C5.3963 14.0005 6.05539 14 7.00096 14H9.00095C9.94652 14 10.6056 14.0005 11.1215 14.0357C11.6284 14.0703 11.9236 14.135 12.149 14.2284C12.8841 14.5328 13.4681 15.1169 13.7726 15.8519C13.866 16.0773 13.9306 16.3725 13.9652 16.8794C14.0004 17.3953 14.001 18.0544 14.001 19C14.001 19.5523 14.4487 20 15.001 20C15.5532 20 16.001 19.5523 16.001 19C16.001 18.2483 16.0118 17.4937 15.9606 16.7433C15.919 16.1346 15.8315 15.5963 15.6204 15.0866C15.1129 13.8614 14.1395 12.8881 12.9144 12.3806C12.4047 12.1695 11.8664 12.0819 11.2576 12.0404C10.6656 12 9.93823 12 9.03647 12H6.96544Z" fill="var(--fill-0, white)"/>
</g>
</svg>
